<svg version="1.1" xmlns="http://www.w3.org/2000/svg" xmlns:xlink="http://www.w3.org/1999/xlink" width="28.32567" height="23.69231" viewBox="0,0,28.32567,23.69231"><g transform="translate(-225.83717,-168.15386)"><g data-paper-data="{&quot;isPaintingLayer&quot;:true}" stroke="none" stroke-linecap="butt" stroke-linejoin="miter" stroke-miterlimit="10" stroke-dasharray="" stroke-dashoffset="0" style="mix-blend-mode: normal"><path d="M225.83717,191.84617v-23.69231h28.32567v23.69231z" fill-opacity="0.00801" fill="#ffffff" fill-rule="nonzero" stroke-width="0"></path><path d="M233.93227,189.27105c-1.76914,0 -3.20332,-1.43418 -3.20332,-3.20332v-12.13546c0,-1.76914 1.43418,-3.20332 3.20332,-3.20332h12.13546c1.76914,0 3.20332,1.43418 3.20332,3.20332v12.13546c0,1.76914 -1.43418,3.20332 -3.20332,3.20332z" fill="#f9a83a" fill-rule="nonzero" stroke-width="0"></path><path d="M244.8801,181.46276c0.01626,1.36211 -0.57162,2.67325 -1.61167,3.59428c-0.82774,0.741 -1.87204,1.16668 -2.95802,1.20811c-0.50201,0.40882 -1.11072,0.6519 -1.76252,0.69481c-0.0696,0.00477 -0.13919,0.00769 -0.20879,0.00769c-1.66501,0 -3.06613,-1.34964 -3.19366,-3.0729c-0.00141,-0.0198 -0.00283,-0.04766 -0.00424,-0.08322c-0.00177,-0.0121 -0.00318,-0.02457 -0.00318,-0.03813c-0.0325,-0.7256 -0.01625,-1.32508 0.00459,-1.70675c0.01908,-0.35199 0.03109,-0.98519 0.0325,-1.13259v-0.00917c0.00883,-0.51515 0.13177,-1.01782 0.3554,-1.46844c-0.06359,-0.50415 -0.06218,-1.04349 0.006,-1.60923l0.00883,-0.08799c0.00177,-0.01063 0.00176,-0.0231 0.00282,-0.03374c0.00177,-0.00917 0.00318,-0.0198 0.00459,-0.03043c0.05617,-0.48141 0.15403,-1.27008 0.56879,-2.07855c0.6903,-1.35588 1.99993,-2.1647 3.50172,-2.1647h0.06359c0.47269,-0.27352 1.00438,-0.41944 1.55091,-0.41944h0.05794c1.73885,0.03226 3.15339,1.52344 3.15339,3.32515c0,0.0198 -0.05935,2.1812 -0.12612,2.92074c0.35999,0.65337 0.5497,1.39437 0.55712,2.18451" fill="#ffffff" fill-rule="evenodd" stroke-width="1"></path><path d="M243.40207,181.47098c0.01201,0.90233 -0.3879,1.78485 -1.09765,2.41366c-0.6027,0.53971 -1.37285,0.83779 -2.16526,0.83779c-0.13637,-0.00146 -0.27414,-0.00917 -0.4091,-0.02786c-0.03109,0.04326 -0.06358,0.0847 -0.09751,0.12466c-0.30523,0.35822 -0.72599,0.57051 -1.18526,0.59801c-0.03533,0.00294 -0.0696,0.0044 -0.10493,0.0044c-0.89627,0 -1.65018,-0.72854 -1.71694,-1.65689c-0.00141,-0.01833 -0.00282,-0.03703 -0.00282,-0.05683l-0.00141,-0.01393c-0.02967,-0.66107 -0.01484,-1.20519 0.00282,-1.54506c0.02226,-0.39342 0.03427,-1.06219 0.03568,-1.20665c0.00742,-0.45208 0.17452,-0.86236 0.44584,-1.17474c-0.13496,-0.48398 -0.17805,-1.06512 -0.09504,-1.75222l0.01059,-0.1001c0.00141,-0.0077 0.00142,-0.0154 0.00283,-0.02309c0.04734,-0.40258 0.11835,-0.99765 0.41016,-1.56633c0.4356,-0.85466 1.23543,-1.34524 2.19246,-1.34524c0.05335,0 0.10951,0.00146 0.16745,0.00477c0.10068,0.00623 0.20279,0.01833 0.30205,0.03702c0.31089,-0.29075 0.72423,-0.47079 1.17748,-0.46125c0.9362,0.01687 1.69752,0.81909 1.69752,1.78779c0,0.02127 -0.08302,2.60872 -0.12295,2.83311c-0.02367,0.14006 -0.06359,0.27351 -0.11552,0.39965c0.431,0.51661 0.66345,1.16081 0.66947,1.88935" fill="#f9a83a" fill-rule="evenodd" stroke-width="1"></path><path d="M239.6648,179.62458c0.77474,0.12686 2.38996,0.38792 2.40372,1.87321c0.00636,0.49754 -0.22575,0.98923 -0.63096,1.34891c-0.45254,0.40368 -1.04501,0.57748 -1.62438,0.47664c-0.44408,-0.07846 -0.81714,-0.26142 -1.10118,-0.44951c-0.00247,0.43301 0.01661,0.7465 0.01661,0.75016c0.01484,0.22219 -0.14767,0.41431 -0.36105,0.42604c-0.21408,0.01467 -0.3978,-0.15253 -0.4137,-0.37435c0,-0.02823 -0.03992,-0.675 0,-1.43873c0.02791,-0.47408 0.03745,-1.26128 0.03745,-1.26861c0.00389,-0.22219 0.18053,-0.40185 0.39567,-0.39671c0.21197,0.00513 0.38402,0.18626 0.38013,0.40881c0,0.00697 -0.00035,0.06967 -0.00212,0.16426c0.0159,0.21119 0.06713,0.5441 0.21444,0.75604c0.17488,0.25116 0.51933,0.46859 0.65604,0.54777c0.09716,0.03337 0.19854,0.06417 0.30665,0.0814c0.34833,0.0594 0.71787,-0.05023 0.99414,-0.29405c0.22929,-0.20459 0.36071,-0.47041 0.35682,-0.72963c-0.00636,-0.66656 -0.70339,-0.91552 -1.74733,-1.08566c-0.96057,-0.15583 -1.36967,-0.95842 -1.21175,-2.2307l0.01165,-0.11403c0.07701,-0.64383 0.20491,-1.76103 1.37568,-1.69612c0.43737,0.02677 0.82809,0.3355 1.13333,0.68014c0.00706,-0.34978 0.00812,-0.69664 0.00812,-0.70141c0,-0.22073 0.17382,-0.40148 0.38791,-0.40039c0.21479,0.00366 0.38579,0.18332 0.38579,0.40478c0,0.04107 -0.09504,2.55372 -0.09998,2.57976c-0.03674,0.21816 -0.23952,0.36334 -0.44973,0.32338c-0.16321,-0.0286 -0.28122,-0.15986 -0.31301,-0.31971v0.0011l-0.02367,-0.23355c-0.01555,-0.19029 -0.05264,-0.36739 -0.16039,-0.63871c-0.15015,-0.36958 -0.41688,-0.5562 -0.53699,-0.7003c-0.1293,-0.11036 -0.25896,-0.18406 -0.3713,-0.19139c-0.38437,-0.02164 -0.46739,0.1628 -0.56631,0.99179l-0.01378,0.11513c-0.11764,0.95403 0.11941,1.26238 0.56348,1.33424" fill="#ffffff" fill-rule="evenodd" stroke-width="1"></path></g></g></svg>