<svg version="1.1" xmlns="http://www.w3.org/2000/svg" xmlns:xlink="http://www.w3.org/1999/xlink" width="30.92308" height="23.69231" viewBox="0,0,30.92308,23.69231"><g transform="translate(-224.53846,-168.15385)"><g data-paper-data="{&quot;isPaintingLayer&quot;:true}" fill-rule="nonzero" stroke-linecap="butt" stroke-linejoin="miter" stroke-miterlimit="10" stroke-dasharray="" stroke-dashoffset="0" style="mix-blend-mode: normal"><path d="M224.53846,191.84617v-23.69231h30.92308v23.69231z" fill-opacity="0.00801" fill="#ffffff" stroke="none" stroke-width="0"></path><path d="M246.62124,176.63989v6.72043c0,0.25779 -0.05284,0.50397 -0.15033,0.72777v0.00166c-0.09232,0.21364 -0.22564,0.40695 -0.38781,0.56905c-0.04102,0.04102 -0.08207,0.07873 -0.1265,0.11459c-0.31593,0.26481 -0.7279,0.42376 -1.17224,0.42376h-9.56872c-0.44419,0 -0.85439,-0.15894 -1.17215,-0.4221c-0.04456,-0.0375 -0.0854,-0.07521 -0.12653,-0.11624c-0.16225,-0.16209 -0.29561,-0.3554 -0.38605,-0.56905c-0.09752,-0.22381 -0.15219,-0.47163 -0.15219,-0.72945v-6.72041c0,-0.12125 0.012,-0.24118 0.03584,-0.35723c0.05804,-0.30069 0.19137,-0.5759 0.37767,-0.80319c0.03937,-0.04953 0.08039,-0.09388 0.12474,-0.13825c0.33145,-0.33153 0.79282,-0.53835 1.29865,-0.53835h9.56872c0.50583,0 0.96886,0.20681 1.29876,0.53835c0.04446,0.04436 0.08549,0.08871 0.12474,0.13825c0.1862,0.22731 0.31953,0.50249 0.37922,0.80319c0.02237,0.11606 0.03419,0.23599 0.03417,0.35723zM234.5031,176.098l5.01337,4.37281c0.14016,0.12123 0.31092,0.18109 0.48353,0.18109c0.17438,0 0.34524,-0.05987 0.48355,-0.18109l5.01527,-4.37094c-0.02414,-0.03234 -0.05147,-0.06487 -0.08049,-0.09408c-0.16216,-0.16393 -0.3845,-0.26317 -0.63398,-0.26317h-9.56872c-0.24949,0 -0.46987,0.09925 -0.63398,0.26317c-0.02902,0.0292 -0.05635,0.05987 -0.07856,0.09221zM234.32032,183.39948l3.62756,-3.16282l-3.62939,-3.16618v6.28983c0,0.01369 0,0.02718 0.00183,0.03918zM245.22874,184.13945l-3.82585,-3.33544l-0.35713,0.31084c-0.29899,0.25984 -0.67314,0.39142 -1.04574,0.39142c-0.37069,0 -0.74488,-0.1316 -1.04388,-0.39142l-0.35731,-0.31084l-3.82734,3.33544c0.12972,0.07503 0.28174,0.11774 0.44419,0.11774h9.56872c0.16245,0 0.31446,-0.0427 0.44438,-0.11774zM245.68152,177.07214l-3.62929,3.16635l3.62753,3.16098c0.00176,-0.012 0.00176,-0.0255 0.00176,-0.03918z" fill="#ffffff" stroke="#ffffff" stroke-width="0.25"></path></g></g></svg>