<svg version="1.1" xmlns="http://www.w3.org/2000/svg" xmlns:xlink="http://www.w3.org/1999/xlink" width="30.92308" height="23.69231" viewBox="0,0,30.92308,23.69231"><g transform="translate(-224.53846,-168.15385)"><g data-paper-data="{&quot;isPaintingLayer&quot;:true}" fill-rule="nonzero" stroke-linecap="butt" stroke-linejoin="miter" stroke-miterlimit="10" stroke-dasharray="" stroke-dashoffset="0" style="mix-blend-mode: normal"><path d="M224.53846,191.84617v-23.69231h30.92308v23.69231z" fill-opacity="0.00801" fill="#ffffff" stroke="none" stroke-width="0"></path><path d="M246.69919,177.25719v7.00952c0.0002,0.38944 -0.15955,0.74715 -0.41491,1.00166c-0.25455,0.25542 -0.61224,0.41514 -1.00168,0.41493h-10.56521c-0.38944,0.00018 -0.74717,-0.15955 -1.00168,-0.41493c-0.25538,-0.25452 -0.41512,-0.61222 -0.41491,-1.00166v-8.5334c-0.0002,-0.38944 0.15953,-0.74715 0.41491,-1.00166c0.25452,-0.25542 0.61224,-0.41514 1.00168,-0.41493h1.84227c0.35987,0 0.70614,0.13707 0.96886,0.38319l1.12709,1.05696l-0.00045,-0.00068c0.05806,0.05463 0.13448,0.08465 0.21329,0.08465h6.41411c0.38944,-0.00023 0.74694,0.15932 1.00168,0.41467c0.25538,0.25455 0.41512,0.61224 0.41493,1.00168zM245.5939,184.26671v-4.61394h-11.18781v4.61394c0.00018,0.08764 0.03389,0.16192 0.0911,0.21998c0.05825,0.05741 0.13252,0.09111 0.22018,0.09133h10.56521c0.08764,-0.00023 0.16189,-0.03392 0.22018,-0.09133c0.05721,-0.05806 0.09088,-0.13234 0.0911,-0.21998zM245.59382,178.76855v-1.51135c-0.0002,-0.08764 -0.03389,-0.16192 -0.0911,-0.21998c-0.05806,-0.05721 -0.13254,-0.09088 -0.22018,-0.0911h-6.41413c-0.36028,0 -0.70634,-0.13751 -0.96843,-0.38254l-0.00041,-0.00065l-1.12688,-1.05671c-0.05806,-0.05419 -0.13383,-0.08421 -0.21306,-0.08421h-1.84227c-0.08764,0.00023 -0.16193,0.03389 -0.22018,0.0911c-0.05721,0.05831 -0.09088,0.13254 -0.0911,0.22021v3.03523h11.18781z" fill="#ffffff" stroke="#ffffff" stroke-width="0.25"></path></g></g></svg>