<svg version="1.1" xmlns="http://www.w3.org/2000/svg" xmlns:xlink="http://www.w3.org/1999/xlink" width="30.92308" height="23.69231" viewBox="0,0,30.92308,23.69231"><g transform="translate(-224.53846,-168.15384)"><g data-paper-data="{&quot;isPaintingLayer&quot;:true}" fill-rule="nonzero" stroke-miterlimit="10" stroke-dasharray="" stroke-dashoffset="0" style="mix-blend-mode: normal"><path d="M224.53846,191.84616v-23.69231h30.92308v23.69231z" fill-opacity="0.00764" fill="#ffffff" stroke="none" stroke-width="0" stroke-linecap="butt" stroke-linejoin="miter"></path><path d="M238.14205,180.00001c0,-1.02612 0.83183,-1.85796 1.85796,-1.85796c1.02612,0 1.85796,0.83183 1.85796,1.85796c0,1.02612 -0.83183,1.85796 -1.85796,1.85796c-1.02612,0 -1.85796,-0.83183 -1.85796,-1.85796z" fill="none" stroke="#ffffff" stroke-width="1.25" stroke-linecap="round" stroke-linejoin="round"></path><path d="M244.58296,181.85795c-0.16867,0.38218 -0.08774,0.82853 0.20437,1.12716l0.03716,0.03716c0.23259,0.23233 0.36327,0.54759 0.36327,0.87633c0,0.32875 -0.13069,0.64401 -0.36327,0.87633c-0.23233,0.23259 -0.54759,0.36327 -0.87633,0.36327c-0.32875,0 -0.64401,-0.13069 -0.87633,-0.36327l-0.03716,-0.03716c-0.29862,-0.29211 -0.74498,-0.37305 -1.12716,-0.20437c-0.37436,0.16045 -0.61769,0.52788 -0.61932,0.93517v0.10528c0,0.68408 -0.55455,1.23863 -1.23863,1.23863c-0.68408,0 -1.23863,-0.55455 -1.23863,-1.23863v-0.05574c-0.00981,-0.41949 -0.27506,-0.79033 -0.66887,-0.93517c-0.38218,-0.16867 -0.82853,-0.08774 -1.12716,0.20437l-0.03716,0.03716c-0.23233,0.23259 -0.54759,0.36327 -0.87633,0.36327c-0.32875,0 -0.64401,-0.13069 -0.87633,-0.36327c-0.23259,-0.23233 -0.36327,-0.54759 -0.36327,-0.87633c0,-0.32875 0.13069,-0.64401 0.36327,-0.87633l0.03716,-0.03716c0.29211,-0.29862 0.37305,-0.74498 0.20438,-1.12716c-0.16045,-0.37436 -0.52788,-0.61769 -0.93517,-0.61932h-0.10528c-0.68408,0 -1.23863,-0.55455 -1.23863,-1.23863c0,-0.68408 0.55455,-1.23863 1.23863,-1.23863h0.05574c0.41949,-0.00981 0.79033,-0.27506 0.93517,-0.66887c0.16867,-0.38218 0.08774,-0.82853 -0.20438,-1.12716l-0.03716,-0.03716c-0.23259,-0.23233 -0.36327,-0.54759 -0.36327,-0.87633c0,-0.32875 0.13069,-0.64401 0.36327,-0.87633c0.23233,-0.23259 0.54759,-0.36327 0.87633,-0.36327c0.32875,0 0.64401,0.13069 0.87633,0.36327l0.03716,0.03716c0.29862,0.29211 0.74498,0.37305 1.12716,0.20438h0.04954c0.37436,-0.16045 0.61769,-0.52788 0.61932,-0.93517v-0.10528c0,-0.68408 0.55455,-1.23863 1.23863,-1.23863c0.68408,0 1.23863,0.55455 1.23863,1.23863v0.05574c0.00162,0.40729 0.24496,0.77472 0.61932,0.93517c0.38218,0.16867 0.82853,0.08774 1.12716,-0.20437l0.03716,-0.03716c0.23233,-0.23259 0.54759,-0.36327 0.87633,-0.36327c0.32875,0 0.64401,0.13069 0.87633,0.36327c0.23259,0.23233 0.36327,0.54759 0.36327,0.87633c0,0.32875 -0.13069,0.64401 -0.36327,0.87633l-0.03716,0.03716c-0.29211,0.29862 -0.37305,0.74498 -0.20437,1.12716v0.04954c0.16045,0.37436 0.52788,0.61769 0.93517,0.61932h0.10528c0.68408,0 1.23863,0.55455 1.23863,1.23863c0,0.68408 -0.55455,1.23863 -1.23863,1.23863h-0.05574c-0.40729,0.00162 -0.77472,0.24496 -0.93517,0.61932z" fill="none" stroke="#ffffff" stroke-width="1.25" stroke-linecap="round" stroke-linejoin="round"></path></g></g></svg>